<mxfile host="app.diagrams.net" modified="2023-07-07T07:32:15.959Z" agent="Mozilla/5.0 (Macintosh; Intel Mac OS X 10_15_7) AppleWebKit/537.36 (KHTML, like Gecko) Chrome/114.0.0.0 Safari/537.36" version="21.6.1" etag="8dpGQglQibo6fvmJs4qC" type="github">
  <diagram name="第 1 页" id="TFWQ6ns1FDHVvsCSux1I">
    <mxGraphModel>
      <root>
        <mxCell id="0" />
        <mxCell id="1" parent="0" />
      </root>
    </mxGraphModel>
  </diagram>
</mxfile>
